%TF.GenerationSoftware,KiCad,Pcbnew,(6.0.2)*%
%TF.CreationDate,2022-07-28T16:32:46-07:00*%
%TF.ProjectId,mpcie1extv01,6d706369-6531-4657-9874-7630312e6b69,v01*%
%TF.SameCoordinates,Original*%
%TF.FileFunction,Copper,L1,Top*%
%TF.FilePolarity,Positive*%
%FSLAX46Y46*%
G04 Gerber Fmt 4.6, Leading zero omitted, Abs format (unit mm)*
G04 Created by KiCad (PCBNEW (6.0.2)) date 2022-07-28 16:32:46*
%MOMM*%
%LPD*%
G01*
G04 APERTURE LIST*
%TA.AperFunction,SMDPad,CuDef*%
%ADD10R,2.000000X0.600000*%
%TD*%
%TA.AperFunction,ComponentPad*%
%ADD11O,1.700000X1.700000*%
%TD*%
%TA.AperFunction,ComponentPad*%
%ADD12R,1.700000X1.700000*%
%TD*%
%TA.AperFunction,SMDPad,CuDef*%
%ADD13R,3.200000X2.300000*%
%TD*%
%TA.AperFunction,ViaPad*%
%ADD14C,0.800000*%
%TD*%
%TA.AperFunction,Conductor*%
%ADD15C,0.250000*%
%TD*%
%TA.AperFunction,Conductor*%
%ADD16C,1.000000*%
%TD*%
%TA.AperFunction,Conductor*%
%ADD17C,0.500000*%
%TD*%
%TA.AperFunction,Conductor*%
%ADD18C,0.800000*%
%TD*%
G04 APERTURE END LIST*
D10*
%TO.P,U1,51,Reserved*%
%TO.N,unconnected-(U1-Pad51)*%
X66535750Y-171500000D03*
%TO.P,U1,49,Reserved*%
%TO.N,unconnected-(U1-Pad49)*%
X66535750Y-170700000D03*
%TO.P,U1,47,Reserved*%
%TO.N,unconnected-(U1-Pad47)*%
X66535750Y-169900000D03*
%TO.P,U1,45,Reserved*%
%TO.N,unconnected-(U1-Pad45)*%
X66535750Y-169100000D03*
%TO.P,U1,43,GND*%
%TO.N,GND*%
X66535750Y-168300000D03*
%TO.P,U1,41,+3.3Aux*%
%TO.N,/VCC_4G*%
X66535750Y-167500000D03*
%TO.P,U1,39,+3.3Aux*%
X66535750Y-166700000D03*
%TO.P,U1,37,GND*%
%TO.N,GND*%
X66535750Y-165900000D03*
%TO.P,U1,35,GND*%
X66535750Y-165100000D03*
%TO.P,U1,33,PETp0*%
%TO.N,unconnected-(U1-Pad33)*%
X66535750Y-164300000D03*
%TO.P,U1,31,PETn0*%
%TO.N,unconnected-(U1-Pad31)*%
X66535750Y-163500000D03*
%TO.P,U1,29,GND*%
%TO.N,GND*%
X66535750Y-162700000D03*
%TO.P,U1,27,GND*%
X66535750Y-161900000D03*
%TO.P,U1,25,PERp0*%
%TO.N,unconnected-(U1-Pad25)*%
X66535750Y-161100000D03*
%TO.P,U1,23,PERn0*%
%TO.N,unconnected-(U1-Pad23)*%
X66535750Y-160300000D03*
%TO.P,U1,21,GND*%
%TO.N,GND*%
X66535750Y-159500000D03*
%TO.P,U1,19,UIM_C4*%
%TO.N,unconnected-(U1-Pad19)*%
X66535750Y-158700000D03*
%TO.P,U1,17,UIM_C8*%
%TO.N,unconnected-(U1-Pad17)*%
X66535750Y-157900000D03*
%TO.P,U1,15,GND*%
%TO.N,GND*%
X66535750Y-153900000D03*
%TO.P,U1,13,RefClk+*%
%TO.N,unconnected-(U1-Pad13)*%
X66535750Y-153100000D03*
%TO.P,U1,11,RefClk-*%
%TO.N,unconnected-(U1-Pad11)*%
X66535750Y-152300000D03*
%TO.P,U1,9,GND*%
%TO.N,GND*%
X66535750Y-151500000D03*
%TO.P,U1,7,~{CLKREQ}*%
%TO.N,unconnected-(U1-Pad7)*%
X66535750Y-150700000D03*
%TO.P,U1,5,COEX2*%
%TO.N,unconnected-(U1-Pad5)*%
X66535750Y-149900000D03*
%TO.P,U1,3,COEX1*%
%TO.N,unconnected-(U1-Pad3)*%
X66535750Y-149100000D03*
%TO.P,U1,1,~{WAKE}*%
%TO.N,unconnected-(U1-Pad1)*%
X66535750Y-148300000D03*
%TD*%
D11*
%TO.P,J4,2,Pin_2*%
%TO.N,GND*%
X84042250Y-148309000D03*
D12*
%TO.P,J4,1,Pin_1*%
X81502250Y-148309000D03*
%TD*%
D11*
%TO.P,J15,2,Pin_2*%
%TO.N,GND*%
X139677250Y-149834000D03*
D12*
%TO.P,J15,1,Pin_1*%
X139677250Y-147294000D03*
%TD*%
D11*
%TO.P,J14,2,Pin_2*%
%TO.N,/VCC_4G*%
X130437250Y-149684000D03*
D12*
%TO.P,J14,1,Pin_1*%
X130437250Y-147144000D03*
%TD*%
%TO.P,J13,1,Pin_1*%
%TO.N,/SIM_VCC*%
X118547250Y-153299000D03*
%TD*%
%TO.P,J12,1,Pin_1*%
%TO.N,/SIM_SIO*%
X118607250Y-157249000D03*
%TD*%
%TO.P,J11,1,Pin_1*%
%TO.N,/SIM_CLK*%
X118607250Y-161549000D03*
%TD*%
%TO.P,J10,1,Pin_1*%
%TO.N,/SIM_RST*%
X118607250Y-165799000D03*
%TD*%
%TO.P,J9,1,Pin_1*%
%TO.N,/4G_DISABLE*%
X78047250Y-157509000D03*
%TD*%
%TO.P,J8,1,Pin_1*%
%TO.N,/4G_RST*%
X86107250Y-158899000D03*
%TD*%
%TO.P,J7,1,Pin_1*%
%TO.N,/USB_DM_4G*%
X132337250Y-171859000D03*
%TD*%
%TO.P,J6,1,Pin_1*%
%TO.N,/USB_DP_4G*%
X123027250Y-171919000D03*
%TD*%
%TO.P,J5,1,Pin_1*%
%TO.N,/SIM_DET*%
X79850000Y-170050000D03*
%TD*%
D11*
%TO.P,J3,2,Pin_2*%
%TO.N,/VCC_4G*%
X75722250Y-146164000D03*
D12*
%TO.P,J3,1,Pin_1*%
X73182250Y-146164000D03*
%TD*%
D10*
%TO.P,J2,1,~{WAKE}*%
%TO.N,unconnected-(J2-Pad1)*%
X95334250Y-148134000D03*
%TO.P,J2,2,+3V3AUX*%
%TO.N,/VCC_4G*%
X103534250Y-148534000D03*
%TO.P,J2,3,COEX1*%
%TO.N,unconnected-(J2-Pad3)*%
X95334250Y-148934000D03*
%TO.P,J2,4,GND*%
%TO.N,GND*%
X103534250Y-149334000D03*
%TO.P,J2,5,COEX2*%
%TO.N,unconnected-(J2-Pad5)*%
X95334250Y-149734000D03*
%TO.P,J2,6,+1V5*%
%TO.N,unconnected-(J2-Pad6)*%
X103534250Y-150134000D03*
%TO.P,J2,7,~{CLKREQ}*%
%TO.N,unconnected-(J2-Pad7)*%
X95334250Y-150534000D03*
%TO.P,J2,8,UIM_PWR*%
%TO.N,/SIM_VCC*%
X103534250Y-150934000D03*
%TO.P,J2,9,GND*%
%TO.N,GND*%
X95334250Y-151334000D03*
%TO.P,J2,10,UIM_DATA*%
%TO.N,/SIM_SIO*%
X103534250Y-151734000D03*
%TO.P,J2,11,REFCLK-*%
%TO.N,unconnected-(J2-Pad11)*%
X95334250Y-152134000D03*
%TO.P,J2,12,UIM_CLK*%
%TO.N,/SIM_CLK*%
X103534250Y-152534000D03*
%TO.P,J2,13,REFCLK+*%
%TO.N,unconnected-(J2-Pad13)*%
X95334250Y-152934000D03*
%TO.P,J2,14,~{UIM_RESET}*%
%TO.N,/SIM_RST*%
X103534250Y-153334000D03*
%TO.P,J2,15,GND*%
%TO.N,GND*%
X95334250Y-153734000D03*
%TO.P,J2,16,UIM_VPP*%
%TO.N,unconnected-(J2-Pad16)*%
X103534250Y-154134000D03*
%TO.P,J2,17,UIM_C8*%
%TO.N,unconnected-(J2-Pad17)*%
X95334250Y-157734000D03*
%TO.P,J2,18,GND*%
%TO.N,GND*%
X103534250Y-158134000D03*
%TO.P,J2,19,UIM_C4*%
%TO.N,unconnected-(J2-Pad19)*%
X95334250Y-158534000D03*
%TO.P,J2,20,~{W_DISABLE}*%
%TO.N,/4G_DISABLE*%
X103534250Y-158934000D03*
%TO.P,J2,21,GND*%
%TO.N,GND*%
X95334250Y-159334000D03*
%TO.P,J2,22,~{PERST}*%
%TO.N,/4G_RST*%
X103534250Y-159734000D03*
%TO.P,J2,23,PERn0*%
%TO.N,unconnected-(J2-Pad23)*%
X95334250Y-160134000D03*
%TO.P,J2,24,+3V3AUX*%
%TO.N,/VCC_4G*%
X103534250Y-160534000D03*
%TO.P,J2,25,PERp0*%
%TO.N,unconnected-(J2-Pad25)*%
X95334250Y-160934000D03*
%TO.P,J2,26,GND*%
%TO.N,GND*%
X103534250Y-161334000D03*
%TO.P,J2,27,GND*%
X95334250Y-161734000D03*
%TO.P,J2,28,+1V5*%
%TO.N,unconnected-(J2-Pad28)*%
X103534250Y-162134000D03*
%TO.P,J2,29,GND*%
%TO.N,GND*%
X95334250Y-162534000D03*
%TO.P,J2,30,SMB_CLK*%
%TO.N,unconnected-(J2-Pad30)*%
X103534250Y-162934000D03*
%TO.P,J2,31,PETn0*%
%TO.N,unconnected-(J2-Pad31)*%
X95334250Y-163334000D03*
%TO.P,J2,32,SMB_DATA*%
%TO.N,unconnected-(J2-Pad32)*%
X103534250Y-163734000D03*
%TO.P,J2,33,PETp0*%
%TO.N,unconnected-(J2-Pad33)*%
X95334250Y-164134000D03*
%TO.P,J2,34,GND*%
%TO.N,GND*%
X103534250Y-164534000D03*
%TO.P,J2,35,GND*%
X95334250Y-164934000D03*
%TO.P,J2,36,USB_D-*%
%TO.N,/USB_DM_4G*%
X103534250Y-165334000D03*
%TO.P,J2,37,GND*%
%TO.N,GND*%
X95334250Y-165734000D03*
%TO.P,J2,38,USB_D+*%
%TO.N,/USB_DP_4G*%
X103534250Y-166134000D03*
%TO.P,J2,39,+3V3AUX*%
%TO.N,/VCC_4G*%
X95334250Y-166534000D03*
%TO.P,J2,40,GND*%
%TO.N,GND*%
X103534250Y-166934000D03*
%TO.P,J2,41,+3V3AUX*%
%TO.N,/VCC_4G*%
X95334250Y-167334000D03*
%TO.P,J2,42,~{LED_WWAN}*%
%TO.N,unconnected-(J2-Pad42)*%
X103534250Y-167734000D03*
%TO.P,J2,43,GND*%
%TO.N,GND*%
X95334250Y-168134000D03*
%TO.P,J2,44,~{LED_WLAN}*%
%TO.N,/SIM_DET*%
X103534250Y-168534000D03*
%TO.P,J2,45,Reserved*%
%TO.N,unconnected-(J2-Pad45)*%
X95334250Y-168934000D03*
%TO.P,J2,46,~{LED_WPAN}*%
%TO.N,unconnected-(J2-Pad46)*%
X103534250Y-169334000D03*
%TO.P,J2,47,Reserved*%
%TO.N,unconnected-(J2-Pad47)*%
X95334250Y-169734000D03*
%TO.P,J2,48,+1V5*%
%TO.N,unconnected-(J2-Pad48)*%
X103534250Y-170134000D03*
%TO.P,J2,49,Reserved*%
%TO.N,unconnected-(J2-Pad49)*%
X95334250Y-170534000D03*
%TO.P,J2,50,GND*%
%TO.N,GND*%
X103534250Y-170934000D03*
%TO.P,J2,51,Reserved*%
%TO.N,unconnected-(J2-Pad51)*%
X95334250Y-171334000D03*
%TO.P,J2,52,+3V3AUX*%
%TO.N,/VCC_4G*%
X103534250Y-171734000D03*
D13*
%TO.P,J2,MP,MP*%
%TO.N,unconnected-(J2-PadMP)*%
X95934250Y-174584000D03*
X95934250Y-145284000D03*
%TD*%
D14*
%TO.N,GND*%
X69478125Y-170428125D03*
X82850000Y-171850000D03*
X83900000Y-171500000D03*
%TO.N,/VCC_4G*%
X88011250Y-168188750D03*
X76000000Y-168300000D03*
X76899503Y-168350000D03*
X89011250Y-168188750D03*
%TO.N,GND*%
X70278250Y-149500000D03*
%TO.N,/VCC_4G*%
X75337250Y-160739000D03*
X74491250Y-146665000D03*
X89230250Y-172634000D03*
%TO.N,GND*%
X70147250Y-169759000D03*
X92051250Y-169433000D03*
X70145250Y-157714000D03*
X70018250Y-162921000D03*
X92387250Y-162855000D03*
X92260250Y-148377000D03*
X92387250Y-154473000D03*
X70907250Y-154539000D03*
%TO.N,/SIM_DET*%
X106107250Y-169369000D03*
%TO.N,/USB_DP_4G*%
X106557250Y-166589000D03*
%TO.N,/USB_DM_4G*%
X106427250Y-165199000D03*
%TO.N,/4G_RST*%
X106484250Y-159680000D03*
%TO.N,/4G_DISABLE*%
X106427250Y-158389000D03*
%TO.N,/SIM_RST*%
X106167250Y-154649000D03*
%TO.N,/SIM_CLK*%
X106317250Y-153149000D03*
%TO.N,/SIM_SIO*%
X106484250Y-151806000D03*
%TO.N,/SIM_VCC*%
X105767250Y-150709000D03*
%TO.N,/VCC_4G*%
X110167250Y-160569000D03*
X106103250Y-172507000D03*
X106347250Y-161009000D03*
X106230250Y-147996000D03*
%TO.N,GND*%
X106357250Y-170983000D03*
X106507250Y-168059000D03*
X106347250Y-163679000D03*
X106317250Y-162449000D03*
X106297250Y-156999000D03*
X106570250Y-149434000D03*
%TD*%
D15*
%TO.N,GND*%
X82800000Y-170650000D02*
X83850000Y-169600000D01*
X83850000Y-169600000D02*
X83900000Y-169600000D01*
X82800000Y-170850000D02*
X82800000Y-170650000D01*
X82850000Y-170900000D02*
X82800000Y-170850000D01*
D16*
X83900000Y-168350000D02*
X83900000Y-169600000D01*
X83900000Y-169600000D02*
X83900000Y-170650000D01*
D15*
X82850000Y-171850000D02*
X82850000Y-170900000D01*
X82850000Y-171700000D02*
X83900000Y-170650000D01*
X82850000Y-171850000D02*
X82850000Y-171700000D01*
D16*
X83900000Y-170650000D02*
X83900000Y-171500000D01*
D15*
X69700000Y-169800000D02*
X69500000Y-170000000D01*
X70147250Y-169759000D02*
X70106250Y-169800000D01*
X70106250Y-169800000D02*
X69700000Y-169800000D01*
X69500000Y-170450000D02*
X69478125Y-170428125D01*
X70000000Y-170450000D02*
X69500000Y-170450000D01*
X70000000Y-169906250D02*
X70000000Y-170450000D01*
X70147250Y-169759000D02*
X70000000Y-169906250D01*
X70145250Y-162794000D02*
X70018250Y-162921000D01*
X70145250Y-158857000D02*
X70145250Y-162794000D01*
X71400000Y-154500000D02*
X71439000Y-154539000D01*
X70278250Y-149528250D02*
X71400000Y-150650000D01*
X71400000Y-150650000D02*
X71400000Y-154500000D01*
X70278250Y-149500000D02*
X70278250Y-149528250D01*
X71900000Y-155000000D02*
X71900000Y-156400000D01*
X71439000Y-154539000D02*
X71900000Y-155000000D01*
X71900000Y-156400000D02*
X70586000Y-157714000D01*
X70586000Y-157714000D02*
X70145250Y-157714000D01*
X70907250Y-154539000D02*
X71439000Y-154539000D01*
D16*
X89395000Y-162855000D02*
X83900000Y-168350000D01*
X92387250Y-162855000D02*
X89395000Y-162855000D01*
D17*
%TO.N,/VCC_4G*%
X88411250Y-168188750D02*
X89011250Y-167588750D01*
X89011250Y-167588750D02*
X89011250Y-168188750D01*
X88011250Y-168188750D02*
X88411250Y-168188750D01*
X89011250Y-167173000D02*
X89011250Y-167588750D01*
X76849503Y-168300000D02*
X76899503Y-168350000D01*
X76000000Y-168300000D02*
X76849503Y-168300000D01*
X90027000Y-167173000D02*
X89011250Y-168188750D01*
X90377000Y-167173000D02*
X90027000Y-167173000D01*
X90377000Y-167173000D02*
X92768250Y-167173000D01*
X89011250Y-167173000D02*
X90377000Y-167173000D01*
X76000000Y-167941750D02*
X75297250Y-167239000D01*
X76000000Y-168300000D02*
X76000000Y-167941750D01*
X89011250Y-168188750D02*
X89011250Y-172415000D01*
D15*
%TO.N,GND*%
X107435250Y-161331000D02*
X107881250Y-161331000D01*
X70278250Y-150218000D02*
X70278250Y-149500000D01*
X66535750Y-151500000D02*
X68996250Y-151500000D01*
X68996250Y-151500000D02*
X70278250Y-150218000D01*
X95234250Y-151434000D02*
X92622250Y-151434000D01*
X95334250Y-151334000D02*
X95234250Y-151434000D01*
X92622250Y-151434000D02*
X92260250Y-151072000D01*
D16*
X92260250Y-151072000D02*
X92260250Y-154346000D01*
X92260250Y-148377000D02*
X92260250Y-151072000D01*
D15*
%TO.N,/SIM_VCC*%
X105767250Y-150709000D02*
X105542250Y-150934000D01*
X105542250Y-150934000D02*
X103534250Y-150934000D01*
%TO.N,/SIM_CLK*%
X105702250Y-152534000D02*
X103534250Y-152534000D01*
X106317250Y-153149000D02*
X105702250Y-152534000D01*
%TO.N,/SIM_RST*%
X105083250Y-153334000D02*
X103534250Y-153334000D01*
X106167250Y-154418000D02*
X105083250Y-153334000D01*
X106167250Y-154649000D02*
X106167250Y-154418000D01*
D17*
%TO.N,/VCC_4G*%
X88945250Y-167239000D02*
X89011250Y-167173000D01*
D15*
%TO.N,GND*%
X107687250Y-156999000D02*
X107881250Y-157193000D01*
X106297250Y-156999000D02*
X107687250Y-156999000D01*
D16*
X107881250Y-157193000D02*
X107881250Y-158537000D01*
X107881250Y-149520000D02*
X107881250Y-157193000D01*
D15*
%TO.N,/SIM_DET*%
X105272250Y-168534000D02*
X103534250Y-168534000D01*
X106107250Y-169369000D02*
X105272250Y-168534000D01*
%TO.N,GND*%
X106507250Y-168059000D02*
X107687250Y-168059000D01*
D16*
X107881250Y-167865000D02*
X107881250Y-170983000D01*
X107881250Y-167427000D02*
X107881250Y-167865000D01*
D15*
X107687250Y-168059000D02*
X107881250Y-167865000D01*
D16*
X107881250Y-163325000D02*
X107881250Y-164379000D01*
X107881250Y-162355000D02*
X107881250Y-163325000D01*
D15*
X106347250Y-163679000D02*
X107527250Y-163679000D01*
X107527250Y-163679000D02*
X107881250Y-163325000D01*
X105492250Y-164534000D02*
X103534250Y-164534000D01*
X106347250Y-163679000D02*
X105492250Y-164534000D01*
X107787250Y-162449000D02*
X107881250Y-162355000D01*
X106317250Y-162449000D02*
X107787250Y-162449000D01*
D16*
X107881250Y-161331000D02*
X107881250Y-162355000D01*
D15*
%TO.N,/USB_DM_4G*%
X106292250Y-165334000D02*
X103534250Y-165334000D01*
X106427250Y-165199000D02*
X106292250Y-165334000D01*
%TO.N,/USB_DP_4G*%
X105999250Y-166134000D02*
X103534250Y-166134000D01*
X106454250Y-166589000D02*
X105999250Y-166134000D01*
X106557250Y-166589000D02*
X106454250Y-166589000D01*
%TO.N,GND*%
X106507250Y-168059000D02*
X105382250Y-166934000D01*
X105382250Y-166934000D02*
X103534250Y-166934000D01*
%TO.N,/4G_DISABLE*%
X106427250Y-158389000D02*
X105882250Y-158934000D01*
X105882250Y-158934000D02*
X103534250Y-158934000D01*
%TO.N,GND*%
X105162250Y-158134000D02*
X103534250Y-158134000D01*
X106297250Y-156999000D02*
X105162250Y-158134000D01*
%TO.N,/VCC_4G*%
X105872250Y-160534000D02*
X103534250Y-160534000D01*
X106347250Y-161009000D02*
X105872250Y-160534000D01*
%TO.N,GND*%
X105202250Y-161334000D02*
X103534250Y-161334000D01*
X106317250Y-162449000D02*
X105202250Y-161334000D01*
X93403250Y-153711000D02*
X93149250Y-153711000D01*
X93992250Y-153711000D02*
X93403250Y-153711000D01*
X95334250Y-159334000D02*
X92612250Y-159334000D01*
X95334250Y-162534000D02*
X93082250Y-162534000D01*
X92708250Y-162534000D02*
X92387250Y-162855000D01*
X93082250Y-162534000D02*
X92708250Y-162534000D01*
X92852250Y-165834000D02*
X92381250Y-165363000D01*
X92381250Y-165363000D02*
X92381250Y-164393000D01*
X93200250Y-165834000D02*
X92852250Y-165834000D01*
X93200250Y-165834000D02*
X95234250Y-165834000D01*
X93242250Y-168234000D02*
X95234250Y-168234000D01*
D18*
%TO.N,/VCC_4G*%
X75337250Y-160739000D02*
X75337250Y-167199000D01*
X75337250Y-167199000D02*
X75297250Y-167239000D01*
X74491250Y-146665000D02*
X74491250Y-146793000D01*
D17*
X68875250Y-167239000D02*
X75297250Y-167239000D01*
D18*
X74491250Y-146793000D02*
X75337250Y-147639000D01*
X75337250Y-147639000D02*
X75337250Y-160739000D01*
D17*
X89011250Y-172415000D02*
X89230250Y-172634000D01*
D15*
%TO.N,GND*%
X70147250Y-169291000D02*
X69156250Y-168300000D01*
X70147250Y-169759000D02*
X70147250Y-169291000D01*
X66535750Y-168300000D02*
X69156250Y-168300000D01*
X93242250Y-168242000D02*
X92051250Y-169433000D01*
X93242250Y-168234000D02*
X93242250Y-168242000D01*
X92922250Y-164934000D02*
X92381250Y-164393000D01*
X93370250Y-164934000D02*
X92922250Y-164934000D01*
X92381250Y-164393000D02*
X92381250Y-162861000D01*
X93370250Y-164934000D02*
X93218250Y-164934000D01*
X95334250Y-164934000D02*
X93370250Y-164934000D01*
X92381250Y-162861000D02*
X92387250Y-162855000D01*
X69956250Y-165080000D02*
X70018250Y-165018000D01*
X69013250Y-165080000D02*
X69956250Y-165080000D01*
X69208250Y-165828000D02*
X70018250Y-165018000D01*
X69208250Y-165900000D02*
X69208250Y-165828000D01*
X66535750Y-165900000D02*
X69208250Y-165900000D01*
X70018250Y-165018000D02*
X70018250Y-162921000D01*
X92612250Y-159334000D02*
X92387250Y-159109000D01*
D16*
X92387250Y-159109000D02*
X92387250Y-162855000D01*
X92387250Y-154473000D02*
X92387250Y-159109000D01*
D15*
X69518250Y-159484000D02*
X70145250Y-158857000D01*
X69518250Y-159500000D02*
X69518250Y-159484000D01*
X70145250Y-158857000D02*
X70145250Y-157714000D01*
X66535750Y-159500000D02*
X69518250Y-159500000D01*
X69637250Y-162921000D02*
X70018250Y-162921000D01*
X69416250Y-162700000D02*
X69637250Y-162921000D01*
X66535750Y-162700000D02*
X69416250Y-162700000D01*
X92387250Y-162474000D02*
X92387250Y-162855000D01*
X93127250Y-161734000D02*
X92387250Y-162474000D01*
X95334250Y-161734000D02*
X93127250Y-161734000D01*
X69007250Y-161910000D02*
X69007250Y-161900000D01*
X70018250Y-162921000D02*
X69007250Y-161910000D01*
X66535750Y-161900000D02*
X69007250Y-161900000D01*
D16*
X92260250Y-154346000D02*
X92387250Y-154473000D01*
D15*
X68490250Y-153900000D02*
X66535750Y-153900000D01*
X69129250Y-154539000D02*
X68490250Y-153900000D01*
X70907250Y-154539000D02*
X69129250Y-154539000D01*
X93149250Y-153711000D02*
X92387250Y-154473000D01*
X94015250Y-153734000D02*
X93992250Y-153711000D01*
X95334250Y-153734000D02*
X94015250Y-153734000D01*
%TO.N,/4G_RST*%
X106430250Y-159734000D02*
X106484250Y-159680000D01*
X103534250Y-159734000D02*
X106430250Y-159734000D01*
%TO.N,/SIM_SIO*%
X106412250Y-151734000D02*
X106484250Y-151806000D01*
X103534250Y-151734000D02*
X106412250Y-151734000D01*
D18*
%TO.N,/VCC_4G*%
X106865250Y-147361000D02*
X106230250Y-147996000D01*
X109151250Y-147361000D02*
X106865250Y-147361000D01*
X110167250Y-148377000D02*
X109151250Y-147361000D01*
X110167250Y-160569000D02*
X110167250Y-148377000D01*
X106484250Y-172888000D02*
X106103250Y-172507000D01*
X109278250Y-172888000D02*
X106484250Y-172888000D01*
X110167250Y-171999000D02*
X109278250Y-172888000D01*
X110167250Y-160569000D02*
X110167250Y-171999000D01*
D15*
X105330250Y-171734000D02*
X106103250Y-172507000D01*
X103534250Y-171734000D02*
X105330250Y-171734000D01*
X105692250Y-148534000D02*
X106230250Y-147996000D01*
X103534250Y-148534000D02*
X105692250Y-148534000D01*
X92929250Y-167334000D02*
X95334250Y-167334000D01*
X92768250Y-167173000D02*
X92929250Y-167334000D01*
X92768250Y-166792000D02*
X92768250Y-167173000D01*
X93026250Y-166534000D02*
X92768250Y-166792000D01*
X95334250Y-166534000D02*
X93026250Y-166534000D01*
X68590250Y-166700000D02*
X66535750Y-166700000D01*
X68875250Y-166985000D02*
X68590250Y-166700000D01*
X68875250Y-167239000D02*
X68875250Y-166985000D01*
X66535750Y-167500000D02*
X68614250Y-167500000D01*
X68614250Y-167500000D02*
X68875250Y-167239000D01*
D16*
%TO.N,GND*%
X107881250Y-158537000D02*
X107881250Y-161331000D01*
X107881250Y-164379000D02*
X107881250Y-167427000D01*
X107881250Y-170983000D02*
X106357250Y-170983000D01*
X107754250Y-149393000D02*
X107881250Y-149520000D01*
X107713250Y-149434000D02*
X107754250Y-149393000D01*
X106570250Y-149434000D02*
X107713250Y-149434000D01*
D15*
X106308250Y-170934000D02*
X106357250Y-170983000D01*
X103534250Y-170934000D02*
X106308250Y-170934000D01*
X106470250Y-149334000D02*
X103534250Y-149334000D01*
X106570250Y-149434000D02*
X106470250Y-149334000D01*
X95234250Y-153834000D02*
X95334250Y-153734000D01*
X95234250Y-168234000D02*
X95334250Y-168134000D01*
X69002250Y-165080000D02*
X69013250Y-165080000D01*
X68982250Y-165100000D02*
X69002250Y-165080000D01*
X66535750Y-165100000D02*
X68982250Y-165100000D01*
X95234250Y-165834000D02*
X95334250Y-165734000D01*
X95234250Y-161834000D02*
X95334250Y-161734000D01*
%TD*%
M02*
