%TF.GenerationSoftware,KiCad,Pcbnew,(6.0.2)*%
%TF.CreationDate,2022-07-28T16:32:46-07:00*%
%TF.ProjectId,mpcie1extv01,6d706369-6531-4657-9874-7630312e6b69,v01*%
%TF.SameCoordinates,Original*%
%TF.FileFunction,Paste,Top*%
%TF.FilePolarity,Positive*%
%FSLAX46Y46*%
G04 Gerber Fmt 4.6, Leading zero omitted, Abs format (unit mm)*
G04 Created by KiCad (PCBNEW (6.0.2)) date 2022-07-28 16:32:46*
%MOMM*%
%LPD*%
G01*
G04 APERTURE LIST*
%ADD10R,2.000000X0.600000*%
%ADD11R,3.200000X2.300000*%
G04 APERTURE END LIST*
D10*
%TO.C,J2*%
X95334250Y-148134000D03*
X103534250Y-148534000D03*
X95334250Y-148934000D03*
X103534250Y-149334000D03*
X95334250Y-149734000D03*
X103534250Y-150134000D03*
X95334250Y-150534000D03*
X103534250Y-150934000D03*
X95334250Y-151334000D03*
X103534250Y-151734000D03*
X95334250Y-152134000D03*
X103534250Y-152534000D03*
X95334250Y-152934000D03*
X103534250Y-153334000D03*
X95334250Y-153734000D03*
X103534250Y-154134000D03*
X95334250Y-157734000D03*
X103534250Y-158134000D03*
X95334250Y-158534000D03*
X103534250Y-158934000D03*
X95334250Y-159334000D03*
X103534250Y-159734000D03*
X95334250Y-160134000D03*
X103534250Y-160534000D03*
X95334250Y-160934000D03*
X103534250Y-161334000D03*
X95334250Y-161734000D03*
X103534250Y-162134000D03*
X95334250Y-162534000D03*
X103534250Y-162934000D03*
X95334250Y-163334000D03*
X103534250Y-163734000D03*
X95334250Y-164134000D03*
X103534250Y-164534000D03*
X95334250Y-164934000D03*
X103534250Y-165334000D03*
X95334250Y-165734000D03*
X103534250Y-166134000D03*
X95334250Y-166534000D03*
X103534250Y-166934000D03*
X95334250Y-167334000D03*
X103534250Y-167734000D03*
X95334250Y-168134000D03*
X103534250Y-168534000D03*
X95334250Y-168934000D03*
X103534250Y-169334000D03*
X95334250Y-169734000D03*
X103534250Y-170134000D03*
X95334250Y-170534000D03*
X103534250Y-170934000D03*
X95334250Y-171334000D03*
X103534250Y-171734000D03*
D11*
X95934250Y-174584000D03*
X95934250Y-145284000D03*
%TD*%
M02*
