M48
; DRILL file {KiCad (6.0.2)} date Thu Jul 28 16:34:13 2022
; FORMAT={-:-/ absolute / inch / decimal}
; #@! TF.CreationDate,2022-07-28T16:34:13-07:00
; #@! TF.GenerationSoftware,Kicad,Pcbnew,(6.0.2)
; #@! TF.FileFunction,MixedPlating,1,2
FMAT,2
INCH
; #@! TA.AperFunction,Plated,PTH,ViaDrill
T1C0.0157
; #@! TA.AperFunction,Plated,PTH,ComponentDrill
T2C0.0394
; #@! TA.AperFunction,NonPlated,NPTH,ComponentDrill
T3C0.0433
; #@! TA.AperFunction,NonPlated,NPTH,ComponentDrill
T4C0.0630
; #@! TA.AperFunction,NonPlated,NPTH,ComponentDrill
T5C0.1024
%
G90
G05
T1
X2.7354Y-6.7098
X2.7566Y-6.4142
X2.7616Y-6.2092
X2.7617Y-6.6834
X2.7669Y-5.8858
X2.7916Y-6.0842
X2.9327Y-5.7742
X2.966Y-6.3283
X2.9921Y-6.626
X3.0275Y-6.628
X3.2618Y-6.7657
X3.3031Y-6.752
X3.465Y-6.6216
X3.5044Y-6.6216
X3.513Y-6.7966
X3.6241Y-6.6706
X3.6323Y-5.8416
X3.6373Y-6.0816
X3.6373Y-6.4116
X4.1641Y-5.9334
X4.1773Y-6.7916
X4.1775Y-6.6681
X4.1798Y-6.0885
X4.1823Y-5.8266
X4.1849Y-6.1811
X4.1857Y-6.0295
X4.1857Y-6.3956
X4.1869Y-6.3389
X4.1869Y-6.4441
X4.1873Y-6.7316
X4.19Y-6.2358
X4.19Y-6.5039
X4.1923Y-5.9766
X4.1923Y-6.2866
X4.1932Y-6.6165
X4.1952Y-6.5586
X4.1957Y-5.8832
X4.3373Y-6.3216
T2
X2.8812Y-5.7545
X2.9812Y-5.7545
X3.0727Y-6.2011
X3.1437Y-6.6949
X3.2087Y-5.8389
X3.3087Y-5.8389
X3.39Y-6.2559
X4.6672Y-6.0354
X4.6696Y-6.1909
X4.6696Y-6.3602
X4.6696Y-6.5275
X4.8436Y-6.7685
X5.1353Y-5.7931
X5.1353Y-5.8931
X5.2101Y-6.7661
X5.4991Y-5.799
X5.4991Y-5.899
T3
X3.9147Y-6.7887
T4
X3.9147Y-5.8045
T5
X4.4502Y-5.8228
X4.4502Y-6.7756
T0
M30
