%TF.GenerationSoftware,KiCad,Pcbnew,(6.0.2)*%
%TF.CreationDate,2022-07-28T16:32:46-07:00*%
%TF.ProjectId,mpcie1extv01,6d706369-6531-4657-9874-7630312e6b69,v01*%
%TF.SameCoordinates,Original*%
%TF.FileFunction,Soldermask,Bot*%
%TF.FilePolarity,Negative*%
%FSLAX46Y46*%
G04 Gerber Fmt 4.6, Leading zero omitted, Abs format (unit mm)*
G04 Created by KiCad (PCBNEW (6.0.2)) date 2022-07-28 16:32:46*
%MOMM*%
%LPD*%
G01*
G04 APERTURE LIST*
%ADD10C,2.600000*%
%ADD11R,2.000000X0.600000*%
%ADD12O,1.700000X1.700000*%
%ADD13R,1.700000X1.700000*%
%ADD14C,1.100000*%
%ADD15C,1.600000*%
G04 APERTURE END LIST*
D10*
%TO.C,U1*%
X113035750Y-172100000D03*
X113035750Y-147900000D03*
D11*
X66535750Y-171900000D03*
X66535750Y-171100000D03*
X66535750Y-170300000D03*
X66535750Y-169500000D03*
X66535750Y-168700000D03*
X66535750Y-167900000D03*
X66535750Y-167100000D03*
X66535750Y-166300000D03*
X66535750Y-165500000D03*
X66535750Y-164700000D03*
X66535750Y-163900000D03*
X66535750Y-163100000D03*
X66535750Y-162300000D03*
X66535750Y-161500000D03*
X66535750Y-160700000D03*
X66535750Y-159900000D03*
X66535750Y-159100000D03*
X66535750Y-158300000D03*
X66535750Y-154300000D03*
X66535750Y-153500000D03*
X66535750Y-152700000D03*
X66535750Y-151900000D03*
X66535750Y-151100000D03*
X66535750Y-150300000D03*
X66535750Y-149500000D03*
X66535750Y-148700000D03*
%TD*%
D12*
%TO.C,J4*%
X84042250Y-148309000D03*
D13*
X81502250Y-148309000D03*
%TD*%
D12*
%TO.C,J15*%
X139677250Y-149834000D03*
D13*
X139677250Y-147294000D03*
%TD*%
D12*
%TO.C,J14*%
X130437250Y-149684000D03*
D13*
X130437250Y-147144000D03*
%TD*%
%TO.C,J13*%
X118547250Y-153299000D03*
%TD*%
%TO.C,J12*%
X118607250Y-157249000D03*
%TD*%
%TO.C,J11*%
X118607250Y-161549000D03*
%TD*%
%TO.C,J10*%
X118607250Y-165799000D03*
%TD*%
%TO.C,J9*%
X78047250Y-157509000D03*
%TD*%
%TO.C,J8*%
X86107250Y-158899000D03*
%TD*%
%TO.C,J7*%
X132337250Y-171859000D03*
%TD*%
%TO.C,J6*%
X123027250Y-171919000D03*
%TD*%
%TO.C,J5*%
X79850000Y-170050000D03*
%TD*%
D12*
%TO.C,J3*%
X75722250Y-146164000D03*
D13*
X73182250Y-146164000D03*
%TD*%
D14*
%TO.C,J2*%
X99434250Y-172434000D03*
D15*
X99434250Y-147434000D03*
%TD*%
M02*
