%TF.GenerationSoftware,KiCad,Pcbnew,(6.0.2)*%
%TF.CreationDate,2022-07-28T16:32:46-07:00*%
%TF.ProjectId,mpcie1extv01,6d706369-6531-4657-9874-7630312e6b69,v01*%
%TF.SameCoordinates,Original*%
%TF.FileFunction,Legend,Top*%
%TF.FilePolarity,Positive*%
%FSLAX46Y46*%
G04 Gerber Fmt 4.6, Leading zero omitted, Abs format (unit mm)*
G04 Created by KiCad (PCBNEW (6.0.2)) date 2022-07-28 16:32:46*
%MOMM*%
%LPD*%
G01*
G04 APERTURE LIST*
%ADD10C,0.300000*%
%ADD11C,0.150000*%
%ADD12C,0.025000*%
%ADD13C,0.010000*%
%ADD14C,0.120000*%
%ADD15C,2.600000*%
G04 APERTURE END LIST*
D10*
X86242857Y-164000000D02*
X86100000Y-163928571D01*
X85885714Y-163928571D01*
X85671428Y-164000000D01*
X85528571Y-164142857D01*
X85457142Y-164285714D01*
X85385714Y-164571428D01*
X85385714Y-164785714D01*
X85457142Y-165071428D01*
X85528571Y-165214285D01*
X85671428Y-165357142D01*
X85885714Y-165428571D01*
X86028571Y-165428571D01*
X86242857Y-165357142D01*
X86314285Y-165285714D01*
X86314285Y-164785714D01*
X86028571Y-164785714D01*
X91242857Y-151800000D02*
X91100000Y-151728571D01*
X90885714Y-151728571D01*
X90671428Y-151800000D01*
X90528571Y-151942857D01*
X90457142Y-152085714D01*
X90385714Y-152371428D01*
X90385714Y-152585714D01*
X90457142Y-152871428D01*
X90528571Y-153014285D01*
X90671428Y-153157142D01*
X90885714Y-153228571D01*
X91028571Y-153228571D01*
X91242857Y-153157142D01*
X91314285Y-153085714D01*
X91314285Y-152585714D01*
X91028571Y-152585714D01*
X71742857Y-169200000D02*
X71600000Y-169128571D01*
X71385714Y-169128571D01*
X71171428Y-169200000D01*
X71028571Y-169342857D01*
X70957142Y-169485714D01*
X70885714Y-169771428D01*
X70885714Y-169985714D01*
X70957142Y-170271428D01*
X71028571Y-170414285D01*
X71171428Y-170557142D01*
X71385714Y-170628571D01*
X71528571Y-170628571D01*
X71742857Y-170557142D01*
X71814285Y-170485714D01*
X71814285Y-169985714D01*
X71528571Y-169985714D01*
X71392857Y-161100000D02*
X71250000Y-161028571D01*
X71035714Y-161028571D01*
X70821428Y-161100000D01*
X70678571Y-161242857D01*
X70607142Y-161385714D01*
X70535714Y-161671428D01*
X70535714Y-161885714D01*
X70607142Y-162171428D01*
X70678571Y-162314285D01*
X70821428Y-162457142D01*
X71035714Y-162528571D01*
X71178571Y-162528571D01*
X71392857Y-162457142D01*
X71464285Y-162385714D01*
X71464285Y-161885714D01*
X71178571Y-161885714D01*
X72392857Y-149300000D02*
X72250000Y-149228571D01*
X72035714Y-149228571D01*
X71821428Y-149300000D01*
X71678571Y-149442857D01*
X71607142Y-149585714D01*
X71535714Y-149871428D01*
X71535714Y-150085714D01*
X71607142Y-150371428D01*
X71678571Y-150514285D01*
X71821428Y-150657142D01*
X72035714Y-150728571D01*
X72178571Y-150728571D01*
X72392857Y-150657142D01*
X72464285Y-150585714D01*
X72464285Y-150085714D01*
X72178571Y-150085714D01*
X73242857Y-155250000D02*
X73100000Y-155178571D01*
X72885714Y-155178571D01*
X72671428Y-155250000D01*
X72528571Y-155392857D01*
X72457142Y-155535714D01*
X72385714Y-155821428D01*
X72385714Y-156035714D01*
X72457142Y-156321428D01*
X72528571Y-156464285D01*
X72671428Y-156607142D01*
X72885714Y-156678571D01*
X73028571Y-156678571D01*
X73242857Y-156607142D01*
X73314285Y-156535714D01*
X73314285Y-156035714D01*
X73028571Y-156035714D01*
X75900000Y-161778571D02*
X76400000Y-163278571D01*
X76900000Y-161778571D01*
X89350000Y-165178571D02*
X89850000Y-166678571D01*
X90350000Y-165178571D01*
X85192857Y-171900000D02*
X85050000Y-171828571D01*
X84835714Y-171828571D01*
X84621428Y-171900000D01*
X84478571Y-172042857D01*
X84407142Y-172185714D01*
X84335714Y-172471428D01*
X84335714Y-172685714D01*
X84407142Y-172971428D01*
X84478571Y-173114285D01*
X84621428Y-173257142D01*
X84835714Y-173328571D01*
X84978571Y-173328571D01*
X85192857Y-173257142D01*
X85264285Y-173185714D01*
X85264285Y-172685714D01*
X84978571Y-172685714D01*
D11*
%TO.C,U1*%
X68738857Y-173115428D02*
X68738857Y-174349142D01*
X68811428Y-174494285D01*
X68884000Y-174566857D01*
X69029142Y-174639428D01*
X69319428Y-174639428D01*
X69464571Y-174566857D01*
X69537142Y-174494285D01*
X69609714Y-174349142D01*
X69609714Y-173115428D01*
X71133714Y-174639428D02*
X70262857Y-174639428D01*
X70698285Y-174639428D02*
X70698285Y-173115428D01*
X70553142Y-173333142D01*
X70408000Y-173478285D01*
X70262857Y-173550857D01*
D12*
X89240940Y-159823285D02*
X89229035Y-159835190D01*
X89193321Y-159847095D01*
X89169511Y-159847095D01*
X89133797Y-159835190D01*
X89109988Y-159811380D01*
X89098083Y-159787571D01*
X89086178Y-159739952D01*
X89086178Y-159704238D01*
X89098083Y-159656619D01*
X89109988Y-159632809D01*
X89133797Y-159609000D01*
X89169511Y-159597095D01*
X89193321Y-159597095D01*
X89229035Y-159609000D01*
X89240940Y-159620904D01*
X89443321Y-159835190D02*
X89419511Y-159847095D01*
X89371892Y-159847095D01*
X89348083Y-159835190D01*
X89336178Y-159811380D01*
X89336178Y-159716142D01*
X89348083Y-159692333D01*
X89371892Y-159680428D01*
X89419511Y-159680428D01*
X89443321Y-159692333D01*
X89455226Y-159716142D01*
X89455226Y-159739952D01*
X89336178Y-159763761D01*
X89562369Y-159680428D02*
X89562369Y-159847095D01*
X89562369Y-159704238D02*
X89574273Y-159692333D01*
X89598083Y-159680428D01*
X89633797Y-159680428D01*
X89657607Y-159692333D01*
X89669511Y-159716142D01*
X89669511Y-159847095D01*
X89752845Y-159680428D02*
X89848083Y-159680428D01*
X89788559Y-159597095D02*
X89788559Y-159811380D01*
X89800464Y-159835190D01*
X89824273Y-159847095D01*
X89848083Y-159847095D01*
X90026654Y-159835190D02*
X90002845Y-159847095D01*
X89955226Y-159847095D01*
X89931416Y-159835190D01*
X89919511Y-159811380D01*
X89919511Y-159716142D01*
X89931416Y-159692333D01*
X89955226Y-159680428D01*
X90002845Y-159680428D01*
X90026654Y-159692333D01*
X90038559Y-159716142D01*
X90038559Y-159739952D01*
X89919511Y-159763761D01*
X90145702Y-159847095D02*
X90145702Y-159680428D01*
X90145702Y-159728047D02*
X90157607Y-159704238D01*
X90169511Y-159692333D01*
X90193321Y-159680428D01*
X90217130Y-159680428D01*
X115640940Y-159873285D02*
X115629035Y-159885190D01*
X115593321Y-159897095D01*
X115569511Y-159897095D01*
X115533797Y-159885190D01*
X115509988Y-159861380D01*
X115498083Y-159837571D01*
X115486178Y-159789952D01*
X115486178Y-159754238D01*
X115498083Y-159706619D01*
X115509988Y-159682809D01*
X115533797Y-159659000D01*
X115569511Y-159647095D01*
X115593321Y-159647095D01*
X115629035Y-159659000D01*
X115640940Y-159670904D01*
X115843321Y-159885190D02*
X115819511Y-159897095D01*
X115771892Y-159897095D01*
X115748083Y-159885190D01*
X115736178Y-159861380D01*
X115736178Y-159766142D01*
X115748083Y-159742333D01*
X115771892Y-159730428D01*
X115819511Y-159730428D01*
X115843321Y-159742333D01*
X115855226Y-159766142D01*
X115855226Y-159789952D01*
X115736178Y-159813761D01*
X115962369Y-159730428D02*
X115962369Y-159897095D01*
X115962369Y-159754238D02*
X115974273Y-159742333D01*
X115998083Y-159730428D01*
X116033797Y-159730428D01*
X116057607Y-159742333D01*
X116069511Y-159766142D01*
X116069511Y-159897095D01*
X116152845Y-159730428D02*
X116248083Y-159730428D01*
X116188559Y-159647095D02*
X116188559Y-159861380D01*
X116200464Y-159885190D01*
X116224273Y-159897095D01*
X116248083Y-159897095D01*
X116426654Y-159885190D02*
X116402845Y-159897095D01*
X116355226Y-159897095D01*
X116331416Y-159885190D01*
X116319511Y-159861380D01*
X116319511Y-159766142D01*
X116331416Y-159742333D01*
X116355226Y-159730428D01*
X116402845Y-159730428D01*
X116426654Y-159742333D01*
X116438559Y-159766142D01*
X116438559Y-159789952D01*
X116319511Y-159813761D01*
X116545702Y-159897095D02*
X116545702Y-159730428D01*
X116545702Y-159778047D02*
X116557607Y-159754238D01*
X116569511Y-159742333D01*
X116593321Y-159730428D01*
X116617130Y-159730428D01*
D11*
%TO.C,J4*%
X78624630Y-148642333D02*
X79338916Y-148642333D01*
X79481773Y-148689952D01*
X79577011Y-148785190D01*
X79624630Y-148928047D01*
X79624630Y-149023285D01*
X78957964Y-147737571D02*
X79624630Y-147737571D01*
X78577011Y-147975666D02*
X79291297Y-148213761D01*
X79291297Y-147594714D01*
X85872250Y-149070904D02*
X85824630Y-149166142D01*
X85824630Y-149309000D01*
X85872250Y-149451857D01*
X85967488Y-149547095D01*
X86062726Y-149594714D01*
X86253202Y-149642333D01*
X86396059Y-149642333D01*
X86586535Y-149594714D01*
X86681773Y-149547095D01*
X86777011Y-149451857D01*
X86824630Y-149309000D01*
X86824630Y-149213761D01*
X86777011Y-149070904D01*
X86729392Y-149023285D01*
X86396059Y-149023285D01*
X86396059Y-149213761D01*
X86824630Y-148594714D02*
X85824630Y-148594714D01*
X86824630Y-148023285D01*
X85824630Y-148023285D01*
X86824630Y-147547095D02*
X85824630Y-147547095D01*
X85824630Y-147309000D01*
X85872250Y-147166142D01*
X85967488Y-147070904D01*
X86062726Y-147023285D01*
X86253202Y-146975666D01*
X86396059Y-146975666D01*
X86586535Y-147023285D01*
X86681773Y-147070904D01*
X86777011Y-147166142D01*
X86824630Y-147309000D01*
X86824630Y-147547095D01*
%TO.C,J15*%
X138867726Y-144416380D02*
X138867726Y-145130666D01*
X138820107Y-145273523D01*
X138724869Y-145368761D01*
X138582011Y-145416380D01*
X138486773Y-145416380D01*
X139867726Y-145416380D02*
X139296297Y-145416380D01*
X139582011Y-145416380D02*
X139582011Y-144416380D01*
X139486773Y-144559238D01*
X139391535Y-144654476D01*
X139296297Y-144702095D01*
X140772488Y-144416380D02*
X140296297Y-144416380D01*
X140248678Y-144892571D01*
X140296297Y-144844952D01*
X140391535Y-144797333D01*
X140629630Y-144797333D01*
X140724869Y-144844952D01*
X140772488Y-144892571D01*
X140820107Y-144987809D01*
X140820107Y-145225904D01*
X140772488Y-145321142D01*
X140724869Y-145368761D01*
X140629630Y-145416380D01*
X140391535Y-145416380D01*
X140296297Y-145368761D01*
X140248678Y-145321142D01*
X138915345Y-151664000D02*
X138820107Y-151616380D01*
X138677250Y-151616380D01*
X138534392Y-151664000D01*
X138439154Y-151759238D01*
X138391535Y-151854476D01*
X138343916Y-152044952D01*
X138343916Y-152187809D01*
X138391535Y-152378285D01*
X138439154Y-152473523D01*
X138534392Y-152568761D01*
X138677250Y-152616380D01*
X138772488Y-152616380D01*
X138915345Y-152568761D01*
X138962964Y-152521142D01*
X138962964Y-152187809D01*
X138772488Y-152187809D01*
X139391535Y-152616380D02*
X139391535Y-151616380D01*
X139962964Y-152616380D01*
X139962964Y-151616380D01*
X140439154Y-152616380D02*
X140439154Y-151616380D01*
X140677250Y-151616380D01*
X140820107Y-151664000D01*
X140915345Y-151759238D01*
X140962964Y-151854476D01*
X141010583Y-152044952D01*
X141010583Y-152187809D01*
X140962964Y-152378285D01*
X140915345Y-152473523D01*
X140820107Y-152568761D01*
X140677250Y-152616380D01*
X140439154Y-152616380D01*
%TO.C,J14*%
X129627726Y-144266380D02*
X129627726Y-144980666D01*
X129580107Y-145123523D01*
X129484869Y-145218761D01*
X129342011Y-145266380D01*
X129246773Y-145266380D01*
X130627726Y-145266380D02*
X130056297Y-145266380D01*
X130342011Y-145266380D02*
X130342011Y-144266380D01*
X130246773Y-144409238D01*
X130151535Y-144504476D01*
X130056297Y-144552095D01*
X131484869Y-144599714D02*
X131484869Y-145266380D01*
X131246773Y-144218761D02*
X131008678Y-144933047D01*
X131627726Y-144933047D01*
X127746773Y-151466380D02*
X128080107Y-152466380D01*
X128413440Y-151466380D01*
X129318202Y-152371142D02*
X129270583Y-152418761D01*
X129127726Y-152466380D01*
X129032488Y-152466380D01*
X128889630Y-152418761D01*
X128794392Y-152323523D01*
X128746773Y-152228285D01*
X128699154Y-152037809D01*
X128699154Y-151894952D01*
X128746773Y-151704476D01*
X128794392Y-151609238D01*
X128889630Y-151514000D01*
X129032488Y-151466380D01*
X129127726Y-151466380D01*
X129270583Y-151514000D01*
X129318202Y-151561619D01*
X130318202Y-152371142D02*
X130270583Y-152418761D01*
X130127726Y-152466380D01*
X130032488Y-152466380D01*
X129889630Y-152418761D01*
X129794392Y-152323523D01*
X129746773Y-152228285D01*
X129699154Y-152037809D01*
X129699154Y-151894952D01*
X129746773Y-151704476D01*
X129794392Y-151609238D01*
X129889630Y-151514000D01*
X130032488Y-151466380D01*
X130127726Y-151466380D01*
X130270583Y-151514000D01*
X130318202Y-151561619D01*
X130508678Y-152561619D02*
X131270583Y-152561619D01*
X131937250Y-151799714D02*
X131937250Y-152466380D01*
X131699154Y-151418761D02*
X131461059Y-152133047D01*
X132080107Y-152133047D01*
X132984869Y-151514000D02*
X132889630Y-151466380D01*
X132746773Y-151466380D01*
X132603916Y-151514000D01*
X132508678Y-151609238D01*
X132461059Y-151704476D01*
X132413440Y-151894952D01*
X132413440Y-152037809D01*
X132461059Y-152228285D01*
X132508678Y-152323523D01*
X132603916Y-152418761D01*
X132746773Y-152466380D01*
X132842011Y-152466380D01*
X132984869Y-152418761D01*
X133032488Y-152371142D01*
X133032488Y-152037809D01*
X132842011Y-152037809D01*
%TO.C,J13*%
X113907726Y-153041380D02*
X113907726Y-153755666D01*
X113860107Y-153898523D01*
X113764869Y-153993761D01*
X113622011Y-154041380D01*
X113526773Y-154041380D01*
X114907726Y-154041380D02*
X114336297Y-154041380D01*
X114622011Y-154041380D02*
X114622011Y-153041380D01*
X114526773Y-153184238D01*
X114431535Y-153279476D01*
X114336297Y-153327095D01*
X115241059Y-153041380D02*
X115860107Y-153041380D01*
X115526773Y-153422333D01*
X115669630Y-153422333D01*
X115764869Y-153469952D01*
X115812488Y-153517571D01*
X115860107Y-153612809D01*
X115860107Y-153850904D01*
X115812488Y-153946142D01*
X115764869Y-153993761D01*
X115669630Y-154041380D01*
X115383916Y-154041380D01*
X115288678Y-153993761D01*
X115241059Y-153946142D01*
X121242488Y-153643761D02*
X121385345Y-153691380D01*
X121623440Y-153691380D01*
X121718678Y-153643761D01*
X121766297Y-153596142D01*
X121813916Y-153500904D01*
X121813916Y-153405666D01*
X121766297Y-153310428D01*
X121718678Y-153262809D01*
X121623440Y-153215190D01*
X121432964Y-153167571D01*
X121337726Y-153119952D01*
X121290107Y-153072333D01*
X121242488Y-152977095D01*
X121242488Y-152881857D01*
X121290107Y-152786619D01*
X121337726Y-152739000D01*
X121432964Y-152691380D01*
X121671059Y-152691380D01*
X121813916Y-152739000D01*
X122242488Y-153691380D02*
X122242488Y-152691380D01*
X122718678Y-153691380D02*
X122718678Y-152691380D01*
X123052011Y-153405666D01*
X123385345Y-152691380D01*
X123385345Y-153691380D01*
X123623440Y-153786619D02*
X124385345Y-153786619D01*
X124480583Y-152691380D02*
X124813916Y-153691380D01*
X125147250Y-152691380D01*
X126052011Y-153596142D02*
X126004392Y-153643761D01*
X125861535Y-153691380D01*
X125766297Y-153691380D01*
X125623440Y-153643761D01*
X125528202Y-153548523D01*
X125480583Y-153453285D01*
X125432964Y-153262809D01*
X125432964Y-153119952D01*
X125480583Y-152929476D01*
X125528202Y-152834238D01*
X125623440Y-152739000D01*
X125766297Y-152691380D01*
X125861535Y-152691380D01*
X126004392Y-152739000D01*
X126052011Y-152786619D01*
X127052011Y-153596142D02*
X127004392Y-153643761D01*
X126861535Y-153691380D01*
X126766297Y-153691380D01*
X126623440Y-153643761D01*
X126528202Y-153548523D01*
X126480583Y-153453285D01*
X126432964Y-153262809D01*
X126432964Y-153119952D01*
X126480583Y-152929476D01*
X126528202Y-152834238D01*
X126623440Y-152739000D01*
X126766297Y-152691380D01*
X126861535Y-152691380D01*
X127004392Y-152739000D01*
X127052011Y-152786619D01*
%TO.C,J12*%
X113497726Y-156761380D02*
X113497726Y-157475666D01*
X113450107Y-157618523D01*
X113354869Y-157713761D01*
X113212011Y-157761380D01*
X113116773Y-157761380D01*
X114497726Y-157761380D02*
X113926297Y-157761380D01*
X114212011Y-157761380D02*
X114212011Y-156761380D01*
X114116773Y-156904238D01*
X114021535Y-156999476D01*
X113926297Y-157047095D01*
X114878678Y-156856619D02*
X114926297Y-156809000D01*
X115021535Y-156761380D01*
X115259630Y-156761380D01*
X115354869Y-156809000D01*
X115402488Y-156856619D01*
X115450107Y-156951857D01*
X115450107Y-157047095D01*
X115402488Y-157189952D01*
X114831059Y-157761380D01*
X115450107Y-157761380D01*
X121122964Y-157973761D02*
X121265821Y-158021380D01*
X121503916Y-158021380D01*
X121599154Y-157973761D01*
X121646773Y-157926142D01*
X121694392Y-157830904D01*
X121694392Y-157735666D01*
X121646773Y-157640428D01*
X121599154Y-157592809D01*
X121503916Y-157545190D01*
X121313440Y-157497571D01*
X121218202Y-157449952D01*
X121170583Y-157402333D01*
X121122964Y-157307095D01*
X121122964Y-157211857D01*
X121170583Y-157116619D01*
X121218202Y-157069000D01*
X121313440Y-157021380D01*
X121551535Y-157021380D01*
X121694392Y-157069000D01*
X122122964Y-158021380D02*
X122122964Y-157021380D01*
X122599154Y-158021380D02*
X122599154Y-157021380D01*
X122932488Y-157735666D01*
X123265821Y-157021380D01*
X123265821Y-158021380D01*
X123503916Y-158116619D02*
X124265821Y-158116619D01*
X124456297Y-157973761D02*
X124599154Y-158021380D01*
X124837250Y-158021380D01*
X124932488Y-157973761D01*
X124980107Y-157926142D01*
X125027726Y-157830904D01*
X125027726Y-157735666D01*
X124980107Y-157640428D01*
X124932488Y-157592809D01*
X124837250Y-157545190D01*
X124646773Y-157497571D01*
X124551535Y-157449952D01*
X124503916Y-157402333D01*
X124456297Y-157307095D01*
X124456297Y-157211857D01*
X124503916Y-157116619D01*
X124551535Y-157069000D01*
X124646773Y-157021380D01*
X124884869Y-157021380D01*
X125027726Y-157069000D01*
X125456297Y-158021380D02*
X125456297Y-157021380D01*
X126122964Y-157021380D02*
X126313440Y-157021380D01*
X126408678Y-157069000D01*
X126503916Y-157164238D01*
X126551535Y-157354714D01*
X126551535Y-157688047D01*
X126503916Y-157878523D01*
X126408678Y-157973761D01*
X126313440Y-158021380D01*
X126122964Y-158021380D01*
X126027726Y-157973761D01*
X125932488Y-157878523D01*
X125884869Y-157688047D01*
X125884869Y-157354714D01*
X125932488Y-157164238D01*
X126027726Y-157069000D01*
X126122964Y-157021380D01*
%TO.C,J11*%
X113937726Y-161341380D02*
X113937726Y-162055666D01*
X113890107Y-162198523D01*
X113794869Y-162293761D01*
X113652011Y-162341380D01*
X113556773Y-162341380D01*
X114937726Y-162341380D02*
X114366297Y-162341380D01*
X114652011Y-162341380D02*
X114652011Y-161341380D01*
X114556773Y-161484238D01*
X114461535Y-161579476D01*
X114366297Y-161627095D01*
X115890107Y-162341380D02*
X115318678Y-162341380D01*
X115604392Y-162341380D02*
X115604392Y-161341380D01*
X115509154Y-161484238D01*
X115413916Y-161579476D01*
X115318678Y-161627095D01*
X121306297Y-161873761D02*
X121449154Y-161921380D01*
X121687250Y-161921380D01*
X121782488Y-161873761D01*
X121830107Y-161826142D01*
X121877726Y-161730904D01*
X121877726Y-161635666D01*
X121830107Y-161540428D01*
X121782488Y-161492809D01*
X121687250Y-161445190D01*
X121496773Y-161397571D01*
X121401535Y-161349952D01*
X121353916Y-161302333D01*
X121306297Y-161207095D01*
X121306297Y-161111857D01*
X121353916Y-161016619D01*
X121401535Y-160969000D01*
X121496773Y-160921380D01*
X121734869Y-160921380D01*
X121877726Y-160969000D01*
X122306297Y-161921380D02*
X122306297Y-160921380D01*
X122782488Y-161921380D02*
X122782488Y-160921380D01*
X123115821Y-161635666D01*
X123449154Y-160921380D01*
X123449154Y-161921380D01*
X123687250Y-162016619D02*
X124449154Y-162016619D01*
X125258678Y-161826142D02*
X125211059Y-161873761D01*
X125068202Y-161921380D01*
X124972964Y-161921380D01*
X124830107Y-161873761D01*
X124734869Y-161778523D01*
X124687250Y-161683285D01*
X124639630Y-161492809D01*
X124639630Y-161349952D01*
X124687250Y-161159476D01*
X124734869Y-161064238D01*
X124830107Y-160969000D01*
X124972964Y-160921380D01*
X125068202Y-160921380D01*
X125211059Y-160969000D01*
X125258678Y-161016619D01*
X126163440Y-161921380D02*
X125687250Y-161921380D01*
X125687250Y-160921380D01*
X126496773Y-161921380D02*
X126496773Y-160921380D01*
X127068202Y-161921380D02*
X126639630Y-161349952D01*
X127068202Y-160921380D02*
X126496773Y-161492809D01*
%TO.C,J10*%
X114027726Y-165421380D02*
X114027726Y-166135666D01*
X113980107Y-166278523D01*
X113884869Y-166373761D01*
X113742011Y-166421380D01*
X113646773Y-166421380D01*
X115027726Y-166421380D02*
X114456297Y-166421380D01*
X114742011Y-166421380D02*
X114742011Y-165421380D01*
X114646773Y-165564238D01*
X114551535Y-165659476D01*
X114456297Y-165707095D01*
X115646773Y-165421380D02*
X115742011Y-165421380D01*
X115837250Y-165469000D01*
X115884869Y-165516619D01*
X115932488Y-165611857D01*
X115980107Y-165802333D01*
X115980107Y-166040428D01*
X115932488Y-166230904D01*
X115884869Y-166326142D01*
X115837250Y-166373761D01*
X115742011Y-166421380D01*
X115646773Y-166421380D01*
X115551535Y-166373761D01*
X115503916Y-166326142D01*
X115456297Y-166230904D01*
X115408678Y-166040428D01*
X115408678Y-165802333D01*
X115456297Y-165611857D01*
X115503916Y-165516619D01*
X115551535Y-165469000D01*
X115646773Y-165421380D01*
X121233916Y-166163761D02*
X121376773Y-166211380D01*
X121614869Y-166211380D01*
X121710107Y-166163761D01*
X121757726Y-166116142D01*
X121805345Y-166020904D01*
X121805345Y-165925666D01*
X121757726Y-165830428D01*
X121710107Y-165782809D01*
X121614869Y-165735190D01*
X121424392Y-165687571D01*
X121329154Y-165639952D01*
X121281535Y-165592333D01*
X121233916Y-165497095D01*
X121233916Y-165401857D01*
X121281535Y-165306619D01*
X121329154Y-165259000D01*
X121424392Y-165211380D01*
X121662488Y-165211380D01*
X121805345Y-165259000D01*
X122233916Y-166211380D02*
X122233916Y-165211380D01*
X122710107Y-166211380D02*
X122710107Y-165211380D01*
X123043440Y-165925666D01*
X123376773Y-165211380D01*
X123376773Y-166211380D01*
X123614869Y-166306619D02*
X124376773Y-166306619D01*
X125186297Y-166211380D02*
X124852964Y-165735190D01*
X124614869Y-166211380D02*
X124614869Y-165211380D01*
X124995821Y-165211380D01*
X125091059Y-165259000D01*
X125138678Y-165306619D01*
X125186297Y-165401857D01*
X125186297Y-165544714D01*
X125138678Y-165639952D01*
X125091059Y-165687571D01*
X124995821Y-165735190D01*
X124614869Y-165735190D01*
X125567250Y-166163761D02*
X125710107Y-166211380D01*
X125948202Y-166211380D01*
X126043440Y-166163761D01*
X126091059Y-166116142D01*
X126138678Y-166020904D01*
X126138678Y-165925666D01*
X126091059Y-165830428D01*
X126043440Y-165782809D01*
X125948202Y-165735190D01*
X125757726Y-165687571D01*
X125662488Y-165639952D01*
X125614869Y-165592333D01*
X125567250Y-165497095D01*
X125567250Y-165401857D01*
X125614869Y-165306619D01*
X125662488Y-165259000D01*
X125757726Y-165211380D01*
X125995821Y-165211380D01*
X126138678Y-165259000D01*
X126424392Y-165211380D02*
X126995821Y-165211380D01*
X126710107Y-166211380D02*
X126710107Y-165211380D01*
%TO.C,J9*%
X77713916Y-154631380D02*
X77713916Y-155345666D01*
X77666297Y-155488523D01*
X77571059Y-155583761D01*
X77428202Y-155631380D01*
X77332964Y-155631380D01*
X78237726Y-155631380D02*
X78428202Y-155631380D01*
X78523440Y-155583761D01*
X78571059Y-155536142D01*
X78666297Y-155393285D01*
X78713916Y-155202809D01*
X78713916Y-154821857D01*
X78666297Y-154726619D01*
X78618678Y-154679000D01*
X78523440Y-154631380D01*
X78332964Y-154631380D01*
X78237726Y-154679000D01*
X78190107Y-154726619D01*
X78142488Y-154821857D01*
X78142488Y-155059952D01*
X78190107Y-155155190D01*
X78237726Y-155202809D01*
X78332964Y-155250428D01*
X78523440Y-155250428D01*
X78618678Y-155202809D01*
X78666297Y-155155190D01*
X78713916Y-155059952D01*
X74356773Y-159624714D02*
X74356773Y-160291380D01*
X74118678Y-159243761D02*
X73880583Y-159958047D01*
X74499630Y-159958047D01*
X75404392Y-159339000D02*
X75309154Y-159291380D01*
X75166297Y-159291380D01*
X75023440Y-159339000D01*
X74928202Y-159434238D01*
X74880583Y-159529476D01*
X74832964Y-159719952D01*
X74832964Y-159862809D01*
X74880583Y-160053285D01*
X74928202Y-160148523D01*
X75023440Y-160243761D01*
X75166297Y-160291380D01*
X75261535Y-160291380D01*
X75404392Y-160243761D01*
X75452011Y-160196142D01*
X75452011Y-159862809D01*
X75261535Y-159862809D01*
X75642488Y-160386619D02*
X76404392Y-160386619D01*
X76642488Y-160291380D02*
X76642488Y-159291380D01*
X76880583Y-159291380D01*
X77023440Y-159339000D01*
X77118678Y-159434238D01*
X77166297Y-159529476D01*
X77213916Y-159719952D01*
X77213916Y-159862809D01*
X77166297Y-160053285D01*
X77118678Y-160148523D01*
X77023440Y-160243761D01*
X76880583Y-160291380D01*
X76642488Y-160291380D01*
X77642488Y-160291380D02*
X77642488Y-159291380D01*
X78071059Y-160243761D02*
X78213916Y-160291380D01*
X78452011Y-160291380D01*
X78547250Y-160243761D01*
X78594869Y-160196142D01*
X78642488Y-160100904D01*
X78642488Y-160005666D01*
X78594869Y-159910428D01*
X78547250Y-159862809D01*
X78452011Y-159815190D01*
X78261535Y-159767571D01*
X78166297Y-159719952D01*
X78118678Y-159672333D01*
X78071059Y-159577095D01*
X78071059Y-159481857D01*
X78118678Y-159386619D01*
X78166297Y-159339000D01*
X78261535Y-159291380D01*
X78499630Y-159291380D01*
X78642488Y-159339000D01*
X79023440Y-160005666D02*
X79499630Y-160005666D01*
X78928202Y-160291380D02*
X79261535Y-159291380D01*
X79594869Y-160291380D01*
X80261535Y-159767571D02*
X80404392Y-159815190D01*
X80452011Y-159862809D01*
X80499630Y-159958047D01*
X80499630Y-160100904D01*
X80452011Y-160196142D01*
X80404392Y-160243761D01*
X80309154Y-160291380D01*
X79928202Y-160291380D01*
X79928202Y-159291380D01*
X80261535Y-159291380D01*
X80356773Y-159339000D01*
X80404392Y-159386619D01*
X80452011Y-159481857D01*
X80452011Y-159577095D01*
X80404392Y-159672333D01*
X80356773Y-159719952D01*
X80261535Y-159767571D01*
X79928202Y-159767571D01*
X81404392Y-160291380D02*
X80928202Y-160291380D01*
X80928202Y-159291380D01*
X81737726Y-159767571D02*
X82071059Y-159767571D01*
X82213916Y-160291380D02*
X81737726Y-160291380D01*
X81737726Y-159291380D01*
X82213916Y-159291380D01*
%TO.C,J8*%
X85773916Y-156021380D02*
X85773916Y-156735666D01*
X85726297Y-156878523D01*
X85631059Y-156973761D01*
X85488202Y-157021380D01*
X85392964Y-157021380D01*
X86392964Y-156449952D02*
X86297726Y-156402333D01*
X86250107Y-156354714D01*
X86202488Y-156259476D01*
X86202488Y-156211857D01*
X86250107Y-156116619D01*
X86297726Y-156069000D01*
X86392964Y-156021380D01*
X86583440Y-156021380D01*
X86678678Y-156069000D01*
X86726297Y-156116619D01*
X86773916Y-156211857D01*
X86773916Y-156259476D01*
X86726297Y-156354714D01*
X86678678Y-156402333D01*
X86583440Y-156449952D01*
X86392964Y-156449952D01*
X86297726Y-156497571D01*
X86250107Y-156545190D01*
X86202488Y-156640428D01*
X86202488Y-156830904D01*
X86250107Y-156926142D01*
X86297726Y-156973761D01*
X86392964Y-157021380D01*
X86583440Y-157021380D01*
X86678678Y-156973761D01*
X86726297Y-156926142D01*
X86773916Y-156830904D01*
X86773916Y-156640428D01*
X86726297Y-156545190D01*
X86678678Y-156497571D01*
X86583440Y-156449952D01*
X84059630Y-161014714D02*
X84059630Y-161681380D01*
X83821535Y-160633761D02*
X83583440Y-161348047D01*
X84202488Y-161348047D01*
X85107250Y-160729000D02*
X85012011Y-160681380D01*
X84869154Y-160681380D01*
X84726297Y-160729000D01*
X84631059Y-160824238D01*
X84583440Y-160919476D01*
X84535821Y-161109952D01*
X84535821Y-161252809D01*
X84583440Y-161443285D01*
X84631059Y-161538523D01*
X84726297Y-161633761D01*
X84869154Y-161681380D01*
X84964392Y-161681380D01*
X85107250Y-161633761D01*
X85154869Y-161586142D01*
X85154869Y-161252809D01*
X84964392Y-161252809D01*
X85345345Y-161776619D02*
X86107250Y-161776619D01*
X86916773Y-161681380D02*
X86583440Y-161205190D01*
X86345345Y-161681380D02*
X86345345Y-160681380D01*
X86726297Y-160681380D01*
X86821535Y-160729000D01*
X86869154Y-160776619D01*
X86916773Y-160871857D01*
X86916773Y-161014714D01*
X86869154Y-161109952D01*
X86821535Y-161157571D01*
X86726297Y-161205190D01*
X86345345Y-161205190D01*
X87297726Y-161633761D02*
X87440583Y-161681380D01*
X87678678Y-161681380D01*
X87773916Y-161633761D01*
X87821535Y-161586142D01*
X87869154Y-161490904D01*
X87869154Y-161395666D01*
X87821535Y-161300428D01*
X87773916Y-161252809D01*
X87678678Y-161205190D01*
X87488202Y-161157571D01*
X87392964Y-161109952D01*
X87345345Y-161062333D01*
X87297726Y-160967095D01*
X87297726Y-160871857D01*
X87345345Y-160776619D01*
X87392964Y-160729000D01*
X87488202Y-160681380D01*
X87726297Y-160681380D01*
X87869154Y-160729000D01*
X88154869Y-160681380D02*
X88726297Y-160681380D01*
X88440583Y-161681380D02*
X88440583Y-160681380D01*
%TO.C,J7*%
X132003916Y-168981380D02*
X132003916Y-169695666D01*
X131956297Y-169838523D01*
X131861059Y-169933761D01*
X131718202Y-169981380D01*
X131622964Y-169981380D01*
X132384869Y-168981380D02*
X133051535Y-168981380D01*
X132622964Y-169981380D01*
X128265821Y-173641380D02*
X128265821Y-174450904D01*
X128313440Y-174546142D01*
X128361059Y-174593761D01*
X128456297Y-174641380D01*
X128646773Y-174641380D01*
X128742011Y-174593761D01*
X128789630Y-174546142D01*
X128837250Y-174450904D01*
X128837250Y-173641380D01*
X129265821Y-174593761D02*
X129408678Y-174641380D01*
X129646773Y-174641380D01*
X129742011Y-174593761D01*
X129789630Y-174546142D01*
X129837250Y-174450904D01*
X129837250Y-174355666D01*
X129789630Y-174260428D01*
X129742011Y-174212809D01*
X129646773Y-174165190D01*
X129456297Y-174117571D01*
X129361059Y-174069952D01*
X129313440Y-174022333D01*
X129265821Y-173927095D01*
X129265821Y-173831857D01*
X129313440Y-173736619D01*
X129361059Y-173689000D01*
X129456297Y-173641380D01*
X129694392Y-173641380D01*
X129837250Y-173689000D01*
X130599154Y-174117571D02*
X130742011Y-174165190D01*
X130789630Y-174212809D01*
X130837250Y-174308047D01*
X130837250Y-174450904D01*
X130789630Y-174546142D01*
X130742011Y-174593761D01*
X130646773Y-174641380D01*
X130265821Y-174641380D01*
X130265821Y-173641380D01*
X130599154Y-173641380D01*
X130694392Y-173689000D01*
X130742011Y-173736619D01*
X130789630Y-173831857D01*
X130789630Y-173927095D01*
X130742011Y-174022333D01*
X130694392Y-174069952D01*
X130599154Y-174117571D01*
X130265821Y-174117571D01*
X131027726Y-174736619D02*
X131789630Y-174736619D01*
X132027726Y-174641380D02*
X132027726Y-173641380D01*
X132265821Y-173641380D01*
X132408678Y-173689000D01*
X132503916Y-173784238D01*
X132551535Y-173879476D01*
X132599154Y-174069952D01*
X132599154Y-174212809D01*
X132551535Y-174403285D01*
X132503916Y-174498523D01*
X132408678Y-174593761D01*
X132265821Y-174641380D01*
X132027726Y-174641380D01*
X133027726Y-174641380D02*
X133027726Y-173641380D01*
X133361059Y-174355666D01*
X133694392Y-173641380D01*
X133694392Y-174641380D01*
X133932488Y-174736619D02*
X134694392Y-174736619D01*
X135361059Y-173974714D02*
X135361059Y-174641380D01*
X135122964Y-173593761D02*
X134884869Y-174308047D01*
X135503916Y-174308047D01*
X136408678Y-173689000D02*
X136313440Y-173641380D01*
X136170583Y-173641380D01*
X136027726Y-173689000D01*
X135932488Y-173784238D01*
X135884869Y-173879476D01*
X135837250Y-174069952D01*
X135837250Y-174212809D01*
X135884869Y-174403285D01*
X135932488Y-174498523D01*
X136027726Y-174593761D01*
X136170583Y-174641380D01*
X136265821Y-174641380D01*
X136408678Y-174593761D01*
X136456297Y-174546142D01*
X136456297Y-174212809D01*
X136265821Y-174212809D01*
%TO.C,J6*%
X122693916Y-169041380D02*
X122693916Y-169755666D01*
X122646297Y-169898523D01*
X122551059Y-169993761D01*
X122408202Y-170041380D01*
X122312964Y-170041380D01*
X123598678Y-169041380D02*
X123408202Y-169041380D01*
X123312964Y-169089000D01*
X123265345Y-169136619D01*
X123170107Y-169279476D01*
X123122488Y-169469952D01*
X123122488Y-169850904D01*
X123170107Y-169946142D01*
X123217726Y-169993761D01*
X123312964Y-170041380D01*
X123503440Y-170041380D01*
X123598678Y-169993761D01*
X123646297Y-169946142D01*
X123693916Y-169850904D01*
X123693916Y-169612809D01*
X123646297Y-169517571D01*
X123598678Y-169469952D01*
X123503440Y-169422333D01*
X123312964Y-169422333D01*
X123217726Y-169469952D01*
X123170107Y-169517571D01*
X123122488Y-169612809D01*
X119027250Y-173701380D02*
X119027250Y-174510904D01*
X119074869Y-174606142D01*
X119122488Y-174653761D01*
X119217726Y-174701380D01*
X119408202Y-174701380D01*
X119503440Y-174653761D01*
X119551059Y-174606142D01*
X119598678Y-174510904D01*
X119598678Y-173701380D01*
X120027250Y-174653761D02*
X120170107Y-174701380D01*
X120408202Y-174701380D01*
X120503440Y-174653761D01*
X120551059Y-174606142D01*
X120598678Y-174510904D01*
X120598678Y-174415666D01*
X120551059Y-174320428D01*
X120503440Y-174272809D01*
X120408202Y-174225190D01*
X120217726Y-174177571D01*
X120122488Y-174129952D01*
X120074869Y-174082333D01*
X120027250Y-173987095D01*
X120027250Y-173891857D01*
X120074869Y-173796619D01*
X120122488Y-173749000D01*
X120217726Y-173701380D01*
X120455821Y-173701380D01*
X120598678Y-173749000D01*
X121360583Y-174177571D02*
X121503440Y-174225190D01*
X121551059Y-174272809D01*
X121598678Y-174368047D01*
X121598678Y-174510904D01*
X121551059Y-174606142D01*
X121503440Y-174653761D01*
X121408202Y-174701380D01*
X121027250Y-174701380D01*
X121027250Y-173701380D01*
X121360583Y-173701380D01*
X121455821Y-173749000D01*
X121503440Y-173796619D01*
X121551059Y-173891857D01*
X121551059Y-173987095D01*
X121503440Y-174082333D01*
X121455821Y-174129952D01*
X121360583Y-174177571D01*
X121027250Y-174177571D01*
X121789154Y-174796619D02*
X122551059Y-174796619D01*
X122789154Y-174701380D02*
X122789154Y-173701380D01*
X123027250Y-173701380D01*
X123170107Y-173749000D01*
X123265345Y-173844238D01*
X123312964Y-173939476D01*
X123360583Y-174129952D01*
X123360583Y-174272809D01*
X123312964Y-174463285D01*
X123265345Y-174558523D01*
X123170107Y-174653761D01*
X123027250Y-174701380D01*
X122789154Y-174701380D01*
X123789154Y-174701380D02*
X123789154Y-173701380D01*
X124170107Y-173701380D01*
X124265345Y-173749000D01*
X124312964Y-173796619D01*
X124360583Y-173891857D01*
X124360583Y-174034714D01*
X124312964Y-174129952D01*
X124265345Y-174177571D01*
X124170107Y-174225190D01*
X123789154Y-174225190D01*
X124551059Y-174796619D02*
X125312964Y-174796619D01*
X125979630Y-174034714D02*
X125979630Y-174701380D01*
X125741535Y-173653761D02*
X125503440Y-174368047D01*
X126122488Y-174368047D01*
X127027250Y-173749000D02*
X126932011Y-173701380D01*
X126789154Y-173701380D01*
X126646297Y-173749000D01*
X126551059Y-173844238D01*
X126503440Y-173939476D01*
X126455821Y-174129952D01*
X126455821Y-174272809D01*
X126503440Y-174463285D01*
X126551059Y-174558523D01*
X126646297Y-174653761D01*
X126789154Y-174701380D01*
X126884392Y-174701380D01*
X127027250Y-174653761D01*
X127074869Y-174606142D01*
X127074869Y-174272809D01*
X126884392Y-174272809D01*
%TO.C,J5*%
X76972380Y-170383333D02*
X77686666Y-170383333D01*
X77829523Y-170430952D01*
X77924761Y-170526190D01*
X77972380Y-170669047D01*
X77972380Y-170764285D01*
X76972380Y-169430952D02*
X76972380Y-169907142D01*
X77448571Y-169954761D01*
X77400952Y-169907142D01*
X77353333Y-169811904D01*
X77353333Y-169573809D01*
X77400952Y-169478571D01*
X77448571Y-169430952D01*
X77543809Y-169383333D01*
X77781904Y-169383333D01*
X77877142Y-169430952D01*
X77924761Y-169478571D01*
X77972380Y-169573809D01*
X77972380Y-169811904D01*
X77924761Y-169907142D01*
X77877142Y-169954761D01*
X82010476Y-170924761D02*
X82153333Y-170972380D01*
X82391428Y-170972380D01*
X82486666Y-170924761D01*
X82534285Y-170877142D01*
X82581904Y-170781904D01*
X82581904Y-170686666D01*
X82534285Y-170591428D01*
X82486666Y-170543809D01*
X82391428Y-170496190D01*
X82200952Y-170448571D01*
X82105714Y-170400952D01*
X82058095Y-170353333D01*
X82010476Y-170258095D01*
X82010476Y-170162857D01*
X82058095Y-170067619D01*
X82105714Y-170020000D01*
X82200952Y-169972380D01*
X82439047Y-169972380D01*
X82581904Y-170020000D01*
X83010476Y-170972380D02*
X83010476Y-169972380D01*
X83486666Y-170972380D02*
X83486666Y-169972380D01*
X83820000Y-170686666D01*
X84153333Y-169972380D01*
X84153333Y-170972380D01*
X84391428Y-171067619D02*
X85153333Y-171067619D01*
X85391428Y-170972380D02*
X85391428Y-169972380D01*
X85629523Y-169972380D01*
X85772380Y-170020000D01*
X85867619Y-170115238D01*
X85915238Y-170210476D01*
X85962857Y-170400952D01*
X85962857Y-170543809D01*
X85915238Y-170734285D01*
X85867619Y-170829523D01*
X85772380Y-170924761D01*
X85629523Y-170972380D01*
X85391428Y-170972380D01*
X86391428Y-170448571D02*
X86724761Y-170448571D01*
X86867619Y-170972380D02*
X86391428Y-170972380D01*
X86391428Y-169972380D01*
X86867619Y-169972380D01*
X87153333Y-169972380D02*
X87724761Y-169972380D01*
X87439047Y-170972380D02*
X87439047Y-169972380D01*
%TO.C,J3*%
X69609630Y-146322333D02*
X70323916Y-146322333D01*
X70466773Y-146369952D01*
X70562011Y-146465190D01*
X70609630Y-146608047D01*
X70609630Y-146703285D01*
X69609630Y-145941380D02*
X69609630Y-145322333D01*
X69990583Y-145655666D01*
X69990583Y-145512809D01*
X70038202Y-145417571D01*
X70085821Y-145369952D01*
X70181059Y-145322333D01*
X70419154Y-145322333D01*
X70514392Y-145369952D01*
X70562011Y-145417571D01*
X70609630Y-145512809D01*
X70609630Y-145798523D01*
X70562011Y-145893761D01*
X70514392Y-145941380D01*
X77386773Y-145571380D02*
X77720107Y-146571380D01*
X78053440Y-145571380D01*
X78958202Y-146476142D02*
X78910583Y-146523761D01*
X78767726Y-146571380D01*
X78672488Y-146571380D01*
X78529630Y-146523761D01*
X78434392Y-146428523D01*
X78386773Y-146333285D01*
X78339154Y-146142809D01*
X78339154Y-145999952D01*
X78386773Y-145809476D01*
X78434392Y-145714238D01*
X78529630Y-145619000D01*
X78672488Y-145571380D01*
X78767726Y-145571380D01*
X78910583Y-145619000D01*
X78958202Y-145666619D01*
X79958202Y-146476142D02*
X79910583Y-146523761D01*
X79767726Y-146571380D01*
X79672488Y-146571380D01*
X79529630Y-146523761D01*
X79434392Y-146428523D01*
X79386773Y-146333285D01*
X79339154Y-146142809D01*
X79339154Y-145999952D01*
X79386773Y-145809476D01*
X79434392Y-145714238D01*
X79529630Y-145619000D01*
X79672488Y-145571380D01*
X79767726Y-145571380D01*
X79910583Y-145619000D01*
X79958202Y-145666619D01*
X80148678Y-146666619D02*
X80910583Y-146666619D01*
X81577250Y-145904714D02*
X81577250Y-146571380D01*
X81339154Y-145523761D02*
X81101059Y-146238047D01*
X81720107Y-146238047D01*
X82624869Y-145619000D02*
X82529630Y-145571380D01*
X82386773Y-145571380D01*
X82243916Y-145619000D01*
X82148678Y-145714238D01*
X82101059Y-145809476D01*
X82053440Y-145999952D01*
X82053440Y-146142809D01*
X82101059Y-146333285D01*
X82148678Y-146428523D01*
X82243916Y-146523761D01*
X82386773Y-146571380D01*
X82482011Y-146571380D01*
X82624869Y-146523761D01*
X82672488Y-146476142D01*
X82672488Y-146142809D01*
X82482011Y-146142809D01*
%TO.C,J2*%
X92536630Y-147767333D02*
X93250916Y-147767333D01*
X93393773Y-147814952D01*
X93489011Y-147910190D01*
X93536630Y-148053047D01*
X93536630Y-148148285D01*
X92631869Y-147338761D02*
X92584250Y-147291142D01*
X92536630Y-147195904D01*
X92536630Y-146957809D01*
X92584250Y-146862571D01*
X92631869Y-146814952D01*
X92727107Y-146767333D01*
X92822345Y-146767333D01*
X92965202Y-146814952D01*
X93536630Y-147386380D01*
X93536630Y-146767333D01*
D13*
%TO.C,U1*%
X68185750Y-145000000D02*
X68185750Y-155500000D01*
X69185750Y-155500000D02*
X69185750Y-157000000D01*
X68185750Y-155500000D02*
X69185750Y-155500000D01*
X68185750Y-157000000D02*
X68185750Y-175000000D01*
X69135750Y-157000000D02*
X68185750Y-157000000D01*
X107935750Y-175000000D02*
X107935750Y-145000000D01*
X113035750Y-175000000D02*
X113035750Y-145000000D01*
D14*
%TO.C,J4*%
X82772250Y-146979000D02*
X85372250Y-146979000D01*
X80172250Y-149639000D02*
X80172250Y-148309000D01*
X82772250Y-149639000D02*
X82772250Y-146979000D01*
X82772250Y-149639000D02*
X85372250Y-149639000D01*
X85372250Y-149639000D02*
X85372250Y-146979000D01*
X81502250Y-149639000D02*
X80172250Y-149639000D01*
%TO.C,J15*%
X141007250Y-148564000D02*
X141007250Y-151164000D01*
X138347250Y-145964000D02*
X139677250Y-145964000D01*
X138347250Y-148564000D02*
X141007250Y-148564000D01*
X138347250Y-148564000D02*
X138347250Y-151164000D01*
X138347250Y-151164000D02*
X141007250Y-151164000D01*
X138347250Y-147294000D02*
X138347250Y-145964000D01*
%TO.C,J14*%
X131767250Y-148414000D02*
X131767250Y-151014000D01*
X129107250Y-145814000D02*
X130437250Y-145814000D01*
X129107250Y-148414000D02*
X131767250Y-148414000D01*
X129107250Y-148414000D02*
X129107250Y-151014000D01*
X129107250Y-151014000D02*
X131767250Y-151014000D01*
X129107250Y-147144000D02*
X129107250Y-145814000D01*
%TO.C,J13*%
X117217250Y-153299000D02*
X117217250Y-151969000D01*
X117217250Y-154569000D02*
X117217250Y-154629000D01*
X119877250Y-154569000D02*
X119877250Y-154629000D01*
X117217250Y-154629000D02*
X119877250Y-154629000D01*
X117217250Y-154569000D02*
X119877250Y-154569000D01*
X117217250Y-151969000D02*
X118547250Y-151969000D01*
%TO.C,J12*%
X117277250Y-157249000D02*
X117277250Y-155919000D01*
X117277250Y-158519000D02*
X117277250Y-158579000D01*
X119937250Y-158519000D02*
X119937250Y-158579000D01*
X117277250Y-158579000D02*
X119937250Y-158579000D01*
X117277250Y-158519000D02*
X119937250Y-158519000D01*
X117277250Y-155919000D02*
X118607250Y-155919000D01*
%TO.C,J11*%
X117277250Y-161549000D02*
X117277250Y-160219000D01*
X117277250Y-162819000D02*
X117277250Y-162879000D01*
X119937250Y-162819000D02*
X119937250Y-162879000D01*
X117277250Y-162879000D02*
X119937250Y-162879000D01*
X117277250Y-162819000D02*
X119937250Y-162819000D01*
X117277250Y-160219000D02*
X118607250Y-160219000D01*
%TO.C,J10*%
X117277250Y-165799000D02*
X117277250Y-164469000D01*
X117277250Y-167069000D02*
X117277250Y-167129000D01*
X119937250Y-167069000D02*
X119937250Y-167129000D01*
X117277250Y-167129000D02*
X119937250Y-167129000D01*
X117277250Y-167069000D02*
X119937250Y-167069000D01*
X117277250Y-164469000D02*
X118607250Y-164469000D01*
%TO.C,J9*%
X76717250Y-157509000D02*
X76717250Y-156179000D01*
X76717250Y-158779000D02*
X76717250Y-158839000D01*
X79377250Y-158779000D02*
X79377250Y-158839000D01*
X76717250Y-158839000D02*
X79377250Y-158839000D01*
X76717250Y-158779000D02*
X79377250Y-158779000D01*
X76717250Y-156179000D02*
X78047250Y-156179000D01*
%TO.C,J8*%
X84777250Y-158899000D02*
X84777250Y-157569000D01*
X84777250Y-160169000D02*
X84777250Y-160229000D01*
X87437250Y-160169000D02*
X87437250Y-160229000D01*
X84777250Y-160229000D02*
X87437250Y-160229000D01*
X84777250Y-160169000D02*
X87437250Y-160169000D01*
X84777250Y-157569000D02*
X86107250Y-157569000D01*
%TO.C,J7*%
X131007250Y-171859000D02*
X131007250Y-170529000D01*
X131007250Y-173129000D02*
X131007250Y-173189000D01*
X133667250Y-173129000D02*
X133667250Y-173189000D01*
X131007250Y-173189000D02*
X133667250Y-173189000D01*
X131007250Y-173129000D02*
X133667250Y-173129000D01*
X131007250Y-170529000D02*
X132337250Y-170529000D01*
%TO.C,J6*%
X121697250Y-171919000D02*
X121697250Y-170589000D01*
X121697250Y-173189000D02*
X121697250Y-173249000D01*
X124357250Y-173189000D02*
X124357250Y-173249000D01*
X121697250Y-173249000D02*
X124357250Y-173249000D01*
X121697250Y-173189000D02*
X124357250Y-173189000D01*
X121697250Y-170589000D02*
X123027250Y-170589000D01*
%TO.C,J5*%
X79850000Y-171380000D02*
X78520000Y-171380000D01*
X81120000Y-171380000D02*
X81180000Y-171380000D01*
X81120000Y-168720000D02*
X81180000Y-168720000D01*
X81180000Y-171380000D02*
X81180000Y-168720000D01*
X81120000Y-171380000D02*
X81120000Y-168720000D01*
X78520000Y-171380000D02*
X78520000Y-170050000D01*
%TO.C,J3*%
X74452250Y-144834000D02*
X77052250Y-144834000D01*
X71852250Y-147494000D02*
X71852250Y-146164000D01*
X74452250Y-147494000D02*
X74452250Y-144834000D01*
X74452250Y-147494000D02*
X77052250Y-147494000D01*
X77052250Y-147494000D02*
X77052250Y-144834000D01*
X73182250Y-147494000D02*
X71852250Y-147494000D01*
%TO.C,J2*%
X94734250Y-171934000D02*
X94734250Y-173134000D01*
X97834250Y-175134000D02*
X104134250Y-175134000D01*
X104134250Y-154734000D02*
X104134250Y-157534000D01*
X94734250Y-154334000D02*
X94734250Y-157134000D01*
X104134250Y-144734000D02*
X97834250Y-144734000D01*
X94734250Y-146734000D02*
X94734250Y-147534000D01*
X104134250Y-147934000D02*
X104134250Y-144734000D01*
X104134250Y-172334000D02*
X104134250Y-175134000D01*
%TD*%
D15*
%TO.C,U1*%
X113035750Y-172100000D03*
X113035750Y-147900000D03*
%TD*%
M02*
